<?xml version="1.0" encoding="utf-8"?>
<!-- Generator: Adobe Illustrator 21.1.0, SVG Export Plug-In . SVG Version: 6.00 Build 0)  -->
<svg version="1.1" id="Layer_1" xmlns="http://www.w3.org/2000/svg" xmlns:xlink="http://www.w3.org/1999/xlink" x="0px" y="0px"
	 viewBox="0 0 313 113" style="enable-background:new 0 0 313 113;" xml:space="preserve">
<style type="text/css">
	.st0{fill:#FFFFFF;}
</style>
<g>
	<g>
		<path class="st0" d="M65.3,70.7h5v1.1H65c-2,0-3.5,0.3-4.2,0.9c-1.1,0.5-1.9,1.7-2.5,3.4c-0.1,0.5-0.2,1.1-0.3,1.8
			c0.1,0.9,0.2,1.7,0.5,2.4c0.6,1.5,1.6,2.5,2.9,3.2c0.8,0.4,2,0.6,3.7,0.6h5.2v1.1h-6.5c-2.2,0-4.1-0.9-5.6-2.8
			c-0.5-0.7-0.8-1.5-1.1-2.5l-0.3-1.7c0-1.2,0.3-2.4,0.8-3.7l0.6-1c0.8-1.2,2-2,3.5-2.5C62.3,70.8,63.5,70.7,65.3,70.7"/>
		<rect x="75.8" y="65.4" class="st0" width="1.1" height="19.8"/>
		<path class="st0" d="M83.5,85.1h-1V70.6h1V85.1z M83.5,67.7h-1v-2.4h1V67.7z"/>
		<path class="st0" d="M94.4,70.6c0.7,0,1.5,0.2,2.5,0.6c1-0.4,1.8-0.6,2.3-0.6h0.2c1.4,0,2.6,0.5,3.8,1.5c0.9,1,1.4,2.1,1.4,3.4
			v9.6h-1v-9.5c0-0.9-0.4-1.8-1.1-2.7c-0.9-0.9-2-1.3-3.3-1.3c-0.4,0-1,0.1-1.7,0.4v13h-1.1V72c-0.8-0.3-1.5-0.5-2.2-0.5
			c-1,0.1-1.7,0.3-2.2,0.6c-1.3,0.9-1.9,2.1-1.8,3.5v9.3h-1.1v-9.2c0-1.9,0.7-3.3,2.2-4.4C92.2,70.9,93.2,70.6,94.4,70.6"/>
		<path class="st0" d="M111.3,77.6v0.2l0,0l0,0V78c0,2.7,1.4,4.6,4.1,5.7c0.7,0.2,1.3,0.3,2,0.3c2.3,0,4.1-1,5.4-2.9
			c0.5-1.1,0.8-2.2,0.8-3.2c0-1.5-0.5-2.9-1.5-4.1c-1-0.9-1.8-1.4-2.4-1.6c-0.8-0.3-1.6-0.4-2.3-0.4c-1.6,0-3,0.5-4.4,1.6
			c0,0.1-0.1,0.2-0.4,0.5C111.8,75,111.3,76.3,111.3,77.6 M111.3,74L111.3,74c0.8-1.3,2-2.3,3.8-2.9c0.8-0.2,1.6-0.4,2.5-0.4h0.3
			c1.4,0,2.9,0.6,4.5,1.7c0.9,0.9,1.6,1.7,1.9,2.6c0.3,0.8,0.5,1.7,0.5,2.9c0,1.4-0.3,2.5-0.8,3.4c-0.6,1.4-1.8,2.5-3.6,3.3
			c-0.9,0.3-1.9,0.5-3,0.5h-0.3c-1.6,0-3.2-0.7-4.7-2c-0.4-0.4-0.7-0.8-1-1.2v3.2h-1.1V65.3h1.1L111.3,74L111.3,74z"/>
		<path class="st0" d="M131.3,85.1h-1V70.6h1V85.1z M131.3,67.7h-1v-2.4h1V67.7z"/>
		<path class="st0" d="M138,73.9c0.3-0.5,0.7-0.9,1.2-1.5c0.9-0.7,1.5-1,1.7-1.1c1-0.5,2.2-0.7,3.7-0.7c1.5,0.1,2.8,0.6,4,1.4
			c1.3,0.9,2.1,2.2,2.6,3.9c0.1,0.5,0.2,1.2,0.2,2.3v6.9h-1V78c0-2.9-1.3-4.9-4-5.9c-0.4-0.2-1.2-0.3-2.2-0.4
			c-0.9,0-1.9,0.2-3.1,0.7c-0.7,0.4-1.1,0.7-1.3,1c-0.7,0.7-1.3,1.6-1.6,2.8c-0.1,0.7-0.2,1.5-0.2,2.5V85h-1.1V70.5h1.1L138,73.9
			L138,73.9z"/>
		<path class="st0" d="M158.2,77.8v0.1l0,0l0,0v0.2c0,1.3,0.4,2.6,1.3,3.7c0.7,0.8,1.2,1.2,1.6,1.3c1,0.6,1.8,0.8,2.6,0.8h0.4h0.5
			c1.1,0,2.4-0.4,3.7-1.3c1.1-1,1.7-1.9,1.8-2.6c0.3-0.7,0.4-1.4,0.4-2.2c0-1.8-0.7-3.4-2-4.6c-0.7-0.6-1.3-0.9-1.7-1
			c-1-0.4-1.9-0.6-2.5-0.6c-1.4,0.2-2.5,0.4-3,0.7C159.2,73.7,158.2,75.5,158.2,77.8 M164.5,70.7c1.9,0,3.7,0.7,5.3,2.3l0.7,1v-3.3
			h1v13c0,2.2-0.9,4-2.7,5.4c-1.1,0.7-2,1.1-2.9,1.2c-0.2,0.1-0.8,0.1-1.8,0.1H164c-1.7,0-3.3-0.7-4.9-2c-1-1.1-1.6-2.2-1.7-3.3h1.1
			c0.1,0.7,0.6,1.5,1.4,2.5l0.9,0.7c1.1,0.6,2.1,0.9,3.2,0.9l0.6,0.1c1.2-0.1,2.2-0.4,2.8-0.8c1.2-0.6,2.1-1.6,2.6-2.9
			c0.3-0.8,0.4-1.6,0.4-2.5v-1.3l0,0c-0.6,1.2-1.9,2.2-3.7,2.9c-0.8,0.2-1.7,0.4-2.6,0.4h-0.2c-1.2,0-2.6-0.4-4-1.3
			c-1-0.8-1.7-1.6-2-2.3c-0.6-1.3-0.9-2.5-0.9-3.6c0-0.9,0.2-2,0.7-3.3c0.3-0.5,0.7-1.1,1.4-1.9C160.6,71.4,162.4,70.7,164.5,70.7"
			/>
	</g>
	<polygon class="st0" points="191,73.9 197.4,73.9 197.4,76.8 191,76.8 191,83.1 188,83.1 188,76.8 181.9,76.8 181.9,73.9 188,73.9 
		188,67.6 191,67.6 	"/>
	<g>
		<path class="st0" d="M213.9,65.4h0.9v1.1l0,0c-3.2,0-5.3,1.4-6.3,4.2h5.9v1.1h-6.2l-0.1,1.7v11.7H207V73.5c0-2.5,0.8-4.5,2.3-6
			c1-0.9,2.2-1.5,3.8-1.8L213.9,65.4z"/>
		<path class="st0" d="M221.4,85.1h-1V70.6h1V85.1z M221.4,67.7h-1v-2.4h1V67.7z"/>
		<path class="st0" d="M228.1,70.6h6.3v1.1h-6.3v5.9c0,0.8,0.2,1.8,0.6,2.8c0.2,0.6,0.9,1.4,2,2.4c1.3,0.8,2.6,1.2,4,1.2h0.1v1.1
			l0,0c-2.3,0-4.2-0.8-5.8-2.4c-1.3-1.5-1.9-3.4-1.9-5.6V65.3h1.1v5.3H228.1z"/>
		<path class="st0" d="M241.4,73.9c0.3-0.5,0.7-0.9,1.2-1.5c0.9-0.7,1.5-1,1.7-1.1c1-0.5,2.2-0.7,3.7-0.7c1.5,0.1,2.8,0.6,4,1.4
			c1.3,0.9,2.1,2.2,2.6,3.9c0.1,0.5,0.2,1.2,0.2,2.3v6.9h-1.1V78c0-2.9-1.3-4.9-4-5.9c-0.4-0.2-1.2-0.3-2.2-0.4
			c-0.9,0-1.9,0.2-3.1,0.7c-0.7,0.4-1.1,0.7-1.3,1c-0.7,0.7-1.3,1.6-1.6,2.8c-0.1,0.7-0.2,1.5-0.2,2.5V85h-0.9V70.5h1.1v3.4H241.4z"
			/>
		<path class="st0" d="M261.7,77h12.1l0,0c-0.2-1.1-0.5-2-1-2.6c-0.7-1-1.6-1.7-2.7-2.1c-0.9-0.3-1.7-0.5-2.4-0.5
			c-0.6,0-1.5,0.2-2.6,0.5c-0.7,0.3-1.5,0.9-2.2,1.6C262.1,75,261.7,76.1,261.7,77 M267.6,70.7c2.1,0,3.9,0.7,5.5,2.1l0.7,0.9
			c0.8,1.2,1.2,2.6,1.2,4V78h-13.4v0.2c0,1.2,0.4,2.4,1.3,3.6c1,1,1.9,1.5,2.7,1.7c0.8,0.2,1.4,0.4,2,0.4c2.7,0,4.6-1.1,5.8-3.4
			c0.2-0.4,0.3-0.9,0.4-1.5h1.1v0.1c0,0.7-0.4,1.7-1.1,3c-0.9,1.1-2,1.9-3.3,2.5c-1,0.3-1.8,0.4-2.3,0.4h-0.8
			c-1.4,0-2.8-0.4-4.1-1.3c-1.1-1-1.8-1.8-2-2.4c-0.5-1.1-0.8-2.3-0.8-3.5s0.3-2.4,0.9-3.7c0.8-1.4,2-2.4,3.6-3
			C265.9,70.9,266.7,70.8,267.6,70.7"/>
		<path class="st0" d="M285.1,70.6h8.9v1.1h-9.1c-1.6,0-2.6,0.6-3,1.9c-0.1,0.4-0.2,0.8-0.2,1.1c0,0.8,0.4,1.6,1.1,2.2
			c0.6,0.4,1,0.6,1.5,0.6h6.4c0.8,0.1,1.5,0.4,2.1,0.9c0.6,0.6,1,1.2,1.1,1.8l0.1,0.6v1c-0.1,0.8-0.4,1.5-1.1,2.2
			c-0.5,0.5-1.1,0.8-1.9,1h-1h-9.4v-1h9.1c1.7,0,2.7-0.7,3.1-2.1l0.1-0.7c0-1.2-0.6-2-1.7-2.6l-0.8-0.2h-5.8c-0.8,0-1.6-0.2-2.3-0.7
			c-1-0.9-1.6-2-1.6-3.2s0.5-2.2,1.4-3.2C282.8,70.9,283.8,70.6,285.1,70.6"/>
		<path class="st0" d="M304.1,70.6h8.9v1.1h-9.1c-1.6,0-2.6,0.6-3,1.9c-0.1,0.4-0.2,0.8-0.2,1.1c0,0.8,0.4,1.6,1.1,2.2
			c0.6,0.4,1,0.6,1.5,0.6h6.4c0.8,0.1,1.5,0.4,2.1,0.9c0.6,0.6,1,1.2,1.1,1.8l0.1,0.6v1c-0.1,0.8-0.4,1.5-1.1,2.2
			c-0.5,0.5-1.1,0.8-1.9,1h-1h-9.4v-1h9.1c1.7,0,2.7-0.7,3.1-2.1l0.1-0.7c0-1.2-0.6-2-1.7-2.6l-0.8-0.2h-5.8c-0.8,0-1.6-0.2-2.3-0.7
			c-1-0.9-1.6-2-1.6-3.2s0.5-2.2,1.4-3.2C301.8,70.9,302.8,70.6,304.1,70.6"/>
	</g>
	<g>
		<path class="st0" d="M56.8,53.8V33.5c0,0-0.4-4.5,3.5-8.4c0,0,5.4-5.7,13.6-2.3c0,0,7.3-3.6,13.8,2.4c0,0,3.2,3.1,3.2,7.7v20.9
			h-5.1V33.3c0,0,0.1-3.5-3.2-5.5c0,0-3.1-1.7-5.9-0.6v26.5h-5.3V27.3c0,0-3-1.3-6.5,0.5c0,0-2.9,2-2.9,5.3v20.6h-5.2V53.8z"/>
		<path class="st0" d="M109.8,27.1c-5.9,0-10.7,4.8-10.7,10.7c0,5.9,4.8,10.7,10.7,10.7c5.9,0,10.7-4.8,10.7-10.7
			C120.5,31.9,115.7,27.1,109.8,27.1 M125.9,37.8c0,8.9-7.2,16.1-16.1,16.1s-16.1-7.2-16.1-16.1s7.2-16.1,16.1-16.1
			S125.9,28.9,125.9,37.8"/>
		<polygon class="st0" points="124.8,21.8 136.9,53.8 140.4,53.8 152.4,21.7 146.7,21.7 138.6,43.8 130.4,21.8 		"/>
		<path class="st0" d="M186.6,53.8V33.5c0,0-0.4-4.5,3.5-8.4c0,0,5.4-5.7,13.6-2.3c0,0,7.3-3.6,13.8,2.4c0,0,3.2,3.1,3.2,7.7v20.9
			h-5.1V33.3c0,0,0.1-3.5-3.2-5.5c0,0-3.1-1.7-5.9-0.6v26.5h-5.2V27.3c0,0-3-1.3-6.5,0.5c0,0-2.9,2-2.9,5.3v20.6h-5.3V53.8z"/>
		<path class="st0" d="M156.6,34.5h21.2c0,0-2-7.4-10.6-7.4C167.2,27.1,159.9,26.3,156.6,34.5 M182.9,41.9
			c-1.8,6.9-8.1,11.9-15.6,11.9c-8.9,0-16.1-7.2-16.1-16.1s7.2-16.1,16.1-16.1s16.1,7.2,16.1,16.1c0,0.7,0,1.4-0.1,2.1h-26.7
			c0,0,1.6,8.8,10.6,8.8c0,0,7,0.6,10.2-6.7H182.9z"/>
		<path class="st0" d="M228.9,34.5h21.2c0,0-2-7.4-10.6-7.4C239.5,27.1,232.2,26.3,228.9,34.5 M255.2,41.9
			c-1.8,6.9-8.1,11.9-15.6,11.9c-8.9,0-16.1-7.2-16.1-16.1s7.2-16.1,16.1-16.1s16.1,7.2,16.1,16.1c0,0.7,0,1.4-0.1,2.1h-26.7
			c0,0,1.6,8.8,10.6,8.8c0,0,7,0.6,10.2-6.7H255.2z"/>
		<path class="st0" d="M258.4,53.8V21.6h5.3v4.2c0,0,4.4-4.2,11-4.2c0,0,15.3,0.2,15.9,14.5v17.7h-5.2V37.9c0,0,0.4-9.9-10.7-10.8
			c0,0-4.6-0.1-8,3.1c0,0-2.9,2.8-2.9,6.6v17H258.4z"/>
		<path class="st0" d="M298.5,11.4h-5.3v25.1c0,0-0.8,17.4,18.6,17.4v-5.1c0,0-13.3,0.8-13.3-12.2v-9.4h12.6v-5.4h-12.6V11.4z"/>
	</g>
	<rect x="25.4" y="96" class="st0" width="0.8" height="15.8"/>
	<path class="st0" d="M34.3,71.7c-2.4,0-4.3-1.9-4.3-4.3c0-2.4,1.9-4.3,4.3-4.3s4.3,1.9,4.3,4.3C38.7,69.7,36.7,71.7,34.3,71.7z
		 M34.3,63.8c-2,0-3.6,1.6-3.6,3.6s1.6,3.6,3.6,3.6s3.6-1.6,3.6-3.6C37.9,65.4,36.3,63.8,34.3,63.8z"/>
	<path class="st0" d="M31.6,33c0,1.7-1.4,3.1-3.1,3.1s-3.1-1.4-3.1-3.1s1.4-3.1,3.1-3.1C30.2,30,31.6,31.3,31.6,33"/>
	<rect x="31.3" y="31.3" transform="matrix(0.9404 -0.34 0.34 0.9404 -8.739 13.4353)" class="st0" width="5.3" height="0.7"/>
	<rect x="22" y="32.6" class="st0" width="4.4" height="0.8"/>
	
		<rect x="31.8" y="34.9" transform="matrix(0.8555 -0.5178 0.5178 0.8555 -15.4057 22.2656)" class="st0" width="0.8" height="7.7"/>
	<path class="st0" d="M28.8,59.3c-1.9,0-3.5-1.5-3.5-3.5c0-1.9,1.5-3.5,3.5-3.5c1.9,0,3.5,1.5,3.5,3.5
		C32.3,57.7,30.8,59.3,28.8,59.3z M28.8,53.1c-1.5,0-2.7,1.2-2.7,2.7s1.2,2.7,2.7,2.7s2.7-1.2,2.7-2.7
		C31.6,54.3,30.3,53.1,28.8,53.1z"/>
	<rect x="30.3" y="51.6" transform="matrix(0.686 -0.7276 0.7276 0.686 -27.672 39.914)" class="st0" width="4.2" height="0.8"/>
	<rect x="22" y="47.7" transform="matrix(0.5478 -0.8366 0.8366 0.5478 -33.3834 42.3012)" class="st0" width="0.8" height="8.7"/>
	<rect x="14.6" y="51.7" class="st0" width="0.8" height="9.4"/>
	<rect x="8.5" y="60.2" transform="matrix(0.6319 -0.775 0.775 0.6319 -44.7574 29.7352)" class="st0" width="0.8" height="3.6"/>
	
		<rect x="21.6" y="66.5" transform="matrix(0.9999 -1.041658e-02 1.041658e-02 0.9999 -0.6954 0.2745)" class="st0" width="8.8" height="0.8"/>
	
		<rect x="38.3" y="69.4" transform="matrix(0.7921 -0.6104 0.6104 0.7921 -35.9456 38.5797)" class="st0" width="0.7" height="5.3"/>
	
		<rect x="24.7" y="75.9" transform="matrix(0.3879 -0.9217 0.9217 0.3879 -51.542 74.9666)" class="st0" width="11.9" height="0.8"/>
	<path class="st0" d="M15.8,38.8c-1.5,0-3-0.5-4.2-1.6c-0.9-0.8-1.6-1.9-1.9-3l0.5-0.1c0.3,1.1,0.9,2,1.7,2.8
		c2.4,2.1,6.1,1.9,8.2-0.5s1.9-6.1-0.5-8.2c-0.4-0.3-0.8-0.6-1.2-0.8l0.2-0.4c0.5,0.2,0.9,0.6,1.3,0.9c2.6,2.3,2.8,6.3,0.5,8.9
		C19.3,38.1,17.6,38.8,15.8,38.8z"/>
	<path class="st0" d="M16.1,38c-1.3,0-2.5-0.5-3.4-1.3c-2.1-1.9-2.3-5.2-0.4-7.3c0.9-1,2.2-1.6,3.6-1.7s2.7,0.4,3.7,1.3
		c2.1,1.9,2.3,5.2,0.4,7.3l0,0c-0.9,1-2.2,1.6-3.6,1.7C16.3,38,16.2,38,16.1,38z M16.1,28.5c-0.1,0-0.2,0-0.2,0
		c-1.2,0.1-2.3,0.6-3,1.5c-1.6,1.8-1.5,4.6,0.3,6.2c0.9,0.8,2,1.2,3.2,1.1c1.2-0.1,2.2-0.6,3-1.5l0,0c1.6-1.8,1.5-4.6-0.3-6.2
		C18.2,28.9,17.2,28.5,16.1,28.5z"/>
	<path class="st0" d="M18.8,32.2c0,0,0.2,1.5-1.4,2.2S14.9,34,14.9,34c-0.3-0.3-0.2-0.7,0.2-0.9l3-1.3
		C18.4,31.6,18.7,31.8,18.8,32.2 M14.2,32.3c0,0-0.2-1.5,1.4-2.2c1.5-0.7,2.5,0.4,2.5,0.4c0.3,0.3,0.2,0.7-0.2,0.9l-3,1.3
		C14.6,32.9,14.2,32.7,14.2,32.3 M15.6,29.7c-1.5,0.7-2.2,2.5-1.5,4s2.5,2.2,4,1.5s2.2-2.5,1.5-4S17.1,29,15.6,29.7"/>
	<path class="st0" d="M37,53.1c-0.9-0.3-1.7-0.8-2.4-1.4c-2.9-2.6-3.1-7-0.5-9.8c1.2-1.4,2.9-2.2,4.8-2.3c1.9-0.1,3.6,0.5,5,1.8
		c0.4,0.3,0.7,0.7,1,1.1l-0.4,0.3c-0.3-0.4-0.6-0.7-0.9-1.1c-1.3-1.2-2.9-1.7-4.7-1.6c-1.7,0.1-3.3,0.9-4.5,2.1
		c-2.4,2.7-2.2,6.8,0.5,9.1c0.7,0.6,1.4,1,2.2,1.3L37,53.1z"/>
	<path class="st0" d="M39.6,52.6c-1.4,0-2.8-0.5-3.9-1.5c-2.4-2.1-2.6-5.8-0.5-8.2s5.8-2.6,8.2-0.5c1.2,1,1.8,2.5,1.9,4
		s-0.4,3-1.5,4.2c-1,1.2-2.4,1.8-4,1.9C39.8,52.6,39.7,52.6,39.6,52.6z M39.6,41.7c-1.4,0-2.8,0.6-3.8,1.7c-1.9,2.1-1.7,5.3,0.4,7.1
		c1,0.9,2.3,1.4,3.6,1.3c1.3-0.1,2.6-0.7,3.5-1.7l0,0c0.9-1,1.4-2.3,1.3-3.6s-0.7-2.6-1.7-3.5C42,42.2,40.8,41.7,39.6,41.7z"/>
	<path class="st0" d="M40.5,33.4c-1.7,0-3.3-0.9-4.1-2.5l0,0c-1.2-2.3-0.3-5.1,2-6.2c2.3-1.2,5.1-0.3,6.2,2c1.2,2.3,0.3,5.1-2,6.2
		C41.9,33.3,41.2,33.4,40.5,33.4z M40.5,24.7c-0.6,0-1.3,0.1-1.9,0.5c-2,1-2.8,3.5-1.8,5.6l0,0c1,2,3.5,2.8,5.6,1.8
		c2-1,2.8-3.5,1.8-5.6C43.4,25.5,42,24.7,40.5,24.7z"/>
	<path class="st0" d="M40.6,32.6c-1.4,0-2.7-0.8-3.4-2.1c-0.5-0.9-0.6-2-0.2-2.9c0.3-1,1-1.8,1.9-2.3s2-0.6,2.9-0.2
		c1,0.3,1.8,1,2.3,1.9l0,0c1,1.9,0.2,4.2-1.6,5.2C41.8,32.5,41.2,32.6,40.6,32.6z M40.6,25.7c-0.5,0-1,0.1-1.4,0.3
		c-0.7,0.4-1.3,1-1.5,1.8c-0.3,0.8-0.2,1.6,0.2,2.4c0.8,1.5,2.7,2.1,4.2,1.3c1.5-0.8,2.1-2.7,1.3-4.2l0,0c-0.4-0.7-1-1.3-1.8-1.5
		C41.2,25.7,40.9,25.7,40.6,25.7z"/>
	<path class="st0" d="M41.1,27.2c0,0,1.1,0.3,1.2,1.5c0.1,1.3-1,1.7-1,1.7c-0.3,0.1-0.5-0.1-0.5-0.4l-0.1-2.4
		C40.6,27.3,40.8,27.1,41.1,27.2 M40,30.4c0,0-1.1-0.3-1.2-1.5c-0.1-1.3,1-1.7,1-1.7c0.3-0.1,0.5,0.1,0.5,0.4l0.1,2.4
		C40.5,30.3,40.3,30.5,40,30.4 M38.5,28.7c0.1,1.3,1.2,2.2,2.4,2.1c1.3-0.1,2.2-1.2,2.1-2.4c-0.1-1.3-1.2-2.2-2.4-2.1
		C39.4,26.4,38.5,27.5,38.5,28.7"/>
	<path class="st0" d="M15.3,52.1c-1,0-2-0.4-2.8-1.1c-0.9-0.8-1.4-1.8-1.5-3s0.3-2.3,1.1-3.2s1.8-1.4,3-1.5l0,0
		c1.2-0.1,2.3,0.3,3.2,1s1.4,1.8,1.5,3s-0.3,2.3-1,3.2c-0.8,0.9-1.8,1.4-3,1.5C15.5,52.1,15.4,52.1,15.3,52.1z M15.3,43.9
		c-0.1,0-0.2,0-0.3,0l0,0c-1,0.1-2,0.5-2.6,1.3c-0.7,0.8-1,1.8-0.9,2.8s0.5,2,1.3,2.6c0.8,0.7,1.8,1,2.8,0.9c1-0.1,2-0.5,2.6-1.3
		c0.7-0.8,1-1.8,0.9-2.8s-0.5-2-1.3-2.6C17.1,44.2,16.2,43.9,15.3,43.9z"/>
	<g>
		<path class="st0" d="M15.4,44.3c-1.8,0.1-3.2,1.7-3.1,3.5c0.1,1.8,1.7,3.2,3.5,3c1.8-0.1,3.2-1.7,3-3.5
			C18.8,45.5,17.2,44.2,15.4,44.3z M16,50.6c-1.4,0.1-2.7-1-2.8-2.4s1-2.7,2.4-2.8c1.4-0.1,2.7,1,2.8,2.4
			C18.6,49.2,17.5,50.5,16,50.6z"/>
	</g>
	<path class="st0" d="M15.1,74.9c-1.7,0-3.3-0.6-4.6-1.8c-2.9-2.6-3.1-7-0.5-9.8l0,0c1.2-1.4,2.9-2.2,4.8-2.3c1.9-0.1,3.6,0.5,5,1.8
		c2.9,2.6,3.1,7,0.5,9.8C18.9,74.1,17,74.9,15.1,74.9z M10.3,63.6c-2.4,2.7-2.2,6.8,0.5,9.1c2.7,2.4,6.8,2.2,9.1-0.5
		c2.4-2.7,2.2-6.8-0.5-9.1c-1.3-1.2-2.9-1.7-4.7-1.6C13,61.6,11.4,62.3,10.3,63.6L10.3,63.6z"/>
	<path class="st0" d="M15.3,73.9c-1.4,0-2.8-0.5-3.9-1.5c-2.4-2.2-2.6-5.9-0.5-8.3c2.2-2.4,5.9-2.6,8.3-0.5c2.4,2.2,2.6,5.9,0.5,8.3
		l0,0C18.5,73.2,16.9,73.9,15.3,73.9z M15.3,62.8c-1.4,0-2.8,0.6-3.8,1.7c-1.9,2.1-1.7,5.4,0.4,7.3c2.1,1.9,5.4,1.7,7.3-0.4l0,0
		c1.9-2.1,1.7-5.4-0.4-7.3C17.7,63.3,16.5,62.8,15.3,62.8z"/>
	<path class="st0" d="M18.1,68.2c0,0,0.2,1.8-1.7,2.7c-1.9,0.9-3.1-0.5-3.1-0.5c-0.3-0.4-0.2-0.8,0.2-1.1l3.7-1.7
		C17.7,67.5,18.1,67.7,18.1,68.2 M12.4,68.3c0,0-0.2-1.8,1.7-2.7s3.1,0.5,3.1,0.5c0.3,0.4,0.2,0.9-0.2,1.1l-3.7,1.7
		C12.9,69,12.5,68.8,12.4,68.3 M14.2,65.1c-1.9,0.9-2.7,3.1-1.9,5c0.9,1.9,3.1,2.7,5,1.9c1.9-0.9,2.7-3.1,1.9-5
		C18.3,65.1,16.1,64.2,14.2,65.1"/>
	<path class="st0" d="M4.5,62.3c-0.9,0-1.7-0.2-2.4-0.7c-1-0.7-1.7-1.7-2-2.8c-0.3-1.2,0-2.4,0.6-3.4c0.7-1,1.7-1.7,2.8-2
		c2.4-0.5,4.8,1,5.3,3.5c0.5,2.4-1,4.8-3.5,5.3C5.2,62.3,4.9,62.3,4.5,62.3z M4.5,53.8c-0.3,0-0.6,0-0.8,0.1c-1,0.2-1.9,0.8-2.5,1.7
		s-0.8,2-0.6,3l0,0c0.2,1,0.8,1.9,1.7,2.5s2,0.8,3,0.6c2.2-0.5,3.5-2.6,3.1-4.8C8.1,55.1,6.4,53.8,4.5,53.8z"/>
	<g>
		<path class="st0" d="M7.5,57.3c-0.4-1.8-2.1-2.9-3.9-2.5c-1.8,0.4-2.9,2.1-2.5,3.9c0.4,1.8,2.1,2.9,3.9,2.5S7.9,59.1,7.5,57.3z
			 M5.2,60.3c-1.4,0.3-2.8-0.6-3.1-2s0.6-2.8,2-3.1s2.8,0.6,3.1,2S6.6,60,5.2,60.3z"/>
	</g>
	<path class="st0" d="M42.3,80.9c-0.9,0-1.8-0.3-2.6-1c-0.8-0.7-1.3-1.6-1.4-2.7c-0.1-1,0.3-2.1,0.9-2.9c0.7-0.8,1.6-1.3,2.7-1.3
		l0,0c1-0.1,2.1,0.3,2.8,0.9c0.8,0.7,1.3,1.6,1.4,2.7c0.1,1-0.3,2.1-0.9,2.8c-0.7,0.8-1.6,1.3-2.7,1.3
		C42.5,80.9,42.4,80.9,42.3,80.9z M42.3,73.6c-0.1,0-0.2,0-0.3,0l0,0c-0.9,0.1-1.7,0.5-2.3,1.2c-0.6,0.7-0.9,1.6-0.8,2.5
		s0.5,1.7,1.2,2.3s1.6,0.9,2.5,0.8c0.9-0.1,1.7-0.5,2.3-1.2s0.9-1.6,0.8-2.5s-0.5-1.7-1.2-2.3C43.9,73.9,43.1,73.6,42.3,73.6z"/>
	<g>
		<path class="st0" d="M42.1,74.1c-1.6,0.1-2.8,1.5-2.7,3.1c0.1,1.6,1.5,2.8,3.1,2.7s2.8-1.5,2.7-3.1C45.2,75.2,43.7,74,42.1,74.1z
			 M42.7,79.7c-1.3,0.1-2.4-0.9-2.5-2.1c-0.1-1.3,0.9-2.4,2.1-2.5c1.3-0.1,2.4,0.9,2.5,2.1C44.9,78.5,44,79.6,42.7,79.7z"/>
	</g>
	<path class="st0" d="M43.3,78.3c0,0-0.5,0.7-1.4,0.4S41,77.5,41,77.5c0-0.2,0.2-0.4,0.4-0.3l1.7,0.6C43.4,77.9,43.5,78.1,43.3,78.3
		 M41.4,76.5c0,0,0.5-0.7,1.4-0.4s0.9,1.2,0.9,1.2c0,0.2-0.2,0.4-0.4,0.3L41.6,77C41.4,76.9,41.3,76.7,41.4,76.5 M43,76
		c-0.9-0.3-1.9,0.1-2.2,1c-0.3,0.9,0.1,1.9,1,2.2s1.9-0.1,2.2-1C44.4,77.3,43.9,76.3,43,76"/>
	<path class="st0" d="M26.1,96.3c-2.1,0-4.1-0.8-5.7-2.2c-3.4-3.1-3.8-8.5-0.8-12c0.1-0.1,0.1-0.1,0.2-0.2l0.4,0.3l-0.1,0.1
		c-2.8,3.4-2.5,8.4,0.8,11.3c1.6,1.4,3.7,2.2,5.9,2.1c2.2-0.1,4.2-1.1,5.6-2.7l0.4,0.3c-1.5,1.7-3.6,2.7-6,2.9
		C26.5,96.3,26.3,96.3,26.1,96.3z"/>
	<path class="st0" d="M26.1,95c-1.8,0-3.4-0.6-4.7-1.8c-1.4-1.3-2.3-3-2.4-4.9s0.5-3.7,1.8-5.1c1.3-1.4,3-2.3,4.9-2.4
		c1.9-0.1,3.7,0.5,5.1,1.8c1.4,1.3,2.3,3,2.4,4.9s-0.5,3.7-1.8,5.1l0,0c-1.3,1.4-3,2.3-4.9,2.4C26.4,95,26.3,95,26.1,95z M26.2,81.5
		c-0.1,0-0.2,0-0.4,0c-1.7,0.1-3.3,0.8-4.4,2.1s-1.7,2.9-1.6,4.6c0.1,1.7,0.8,3.3,2.1,4.4s2.9,1.7,4.6,1.6c1.7-0.1,3.3-0.8,4.4-2.1
		l0,0c1.1-1.3,1.7-2.9,1.6-4.6c-0.1-1.7-0.8-3.3-2.1-4.4C29.2,82,27.7,81.5,26.2,81.5z"/>
	<path class="st0" d="M29.6,88.3c0,0,0.2,2-1.8,2.9c-2.1,0.9-3.4-0.6-3.4-0.6c-0.4-0.4-0.3-0.9,0.2-1.1l4-1.8
		C29,87.5,29.5,87.7,29.6,88.3 M23.4,88.4c0,0-0.2-2,1.8-2.9c2.1-0.9,3.4,0.6,3.4,0.6c0.4,0.4,0.2,0.9-0.2,1.1l-4,1.8
		C23.9,89.2,23.4,88.9,23.4,88.4 M25.3,84.9c-2.1,0.9-3,3.4-2.1,5.4c0.9,2.1,3.4,3,5.4,2c2.1-0.9,3-3.4,2.1-5.4S27.3,84,25.3,84.9"
		/>
	<rect x="30.5" class="st0" width="0.8" height="16.3"/>
	<path class="st0" d="M30.8,23.8c-2.2,0-3.9-1.8-3.9-3.9c0-2.2,1.8-3.9,3.9-3.9c2.2,0,3.9,1.8,3.9,3.9C34.7,22,32.9,23.8,30.8,23.8z
		 M30.8,16.7c-1.7,0-3.2,1.4-3.2,3.2c0,1.7,1.4,3.2,3.2,3.2c1.7,0,3.2-1.4,3.2-3.2C33.9,18.1,32.5,16.7,30.8,16.7z"/>
	<path class="st0" d="M31.4,22.3c-1.3,0-2.4-1.1-2.4-2.4s1.1-2.4,2.4-2.4c1.3,0,2.4,1.1,2.4,2.4S32.7,22.3,31.4,22.3z M31.4,18
		c-1,0-1.9,0.8-1.9,1.9c0,1,0.8,1.9,1.9,1.9c1,0,1.9-0.8,1.9-1.9C33.3,18.9,32.4,18,31.4,18z"/>
	<rect x="26.1" y="26.5" transform="matrix(0.1393 -0.9902 0.9902 0.1393 -1.0301 52.5124)" class="st0" width="7.1" height="0.7"/>
	<path class="st0" d="M31.6,66.7c0-1.3,1.1-2.4,2.4-2.4s2.4,1.1,2.4,2.4c0,1.3-1.1,2.4-2.4,2.4C32.6,69.1,31.6,68,31.6,66.7"/>
	<path class="st0" d="M39.4,51.1c-2,0-3.6-1.6-3.6-3.6s1.6-3.6,3.6-3.6s3.6,1.6,3.6,3.6C43,49.5,41.4,51.1,39.4,51.1z M39.4,44.9
		c-1.4,0-2.6,1.1-2.6,2.6c0,1.4,1.1,2.6,2.6,2.6c1.4,0,2.6-1.1,2.6-2.6C42,46.1,40.9,44.9,39.4,44.9z"/>
</g>
</svg>
